<svg width="49" height="49" viewBox="0 0 49 49" fill="none" xmlns="http://www.w3.org/2000/svg">
<circle cx="24.1602" cy="24.8792" r="24" fill="black"/>
<path d="M35.0554 11.11C35.0554 10.79 35.3647 10.63 35.9834 10.63C36.6234 10.63 37.274 10.982 37.9354 11.686C38.5967 12.3687 38.9274 13.158 38.9274 14.054C38.9274 17.3394 36.4847 18.982 31.5994 18.982C29.6367 18.982 27.8234 18.8114 26.1594 18.47V33.798C26.1594 36.0381 25.7327 37.8194 24.8794 39.1421C24.0474 40.4647 22.778 41.1261 21.0714 41.1261C19.386 41.1261 18.1167 40.7314 17.2634 39.9421C16.41 39.1741 15.9834 38.1501 15.9834 36.87C15.9834 35.2274 16.5167 34.406 17.5834 34.406C17.8394 34.406 18.0634 34.47 18.2554 34.598C18.4474 34.726 18.6074 34.9074 18.7354 35.142C18.5647 35.59 18.4794 36.2514 18.4794 37.126C18.4794 38.0007 18.7034 38.6727 19.1514 39.1421C19.6207 39.5901 20.2074 39.8141 20.9114 39.8141C22.3834 39.8141 23.1514 38.4487 23.2154 35.718V17.766C21.8074 17.3607 20.442 16.8594 19.1194 16.262C17.7327 17.926 15.6314 18.758 12.8154 18.758C11.6634 18.758 10.7247 18.5127 9.99936 18.022C9.27403 17.51 8.91136 16.742 8.91136 15.718C8.91136 13.67 10.1914 12.646 12.7514 12.646C14.586 12.646 17.2634 13.3287 20.7834 14.694C22.0847 15.1847 23.7167 15.6434 25.6794 16.07C27.6634 16.4967 29.6794 16.71 31.7274 16.71C33.7754 16.71 35.1727 16.486 35.9194 16.038C36.666 15.59 37.0394 14.9287 37.0394 14.054C37.0394 13.5207 36.89 13.062 36.5914 12.678C36.314 12.2727 36.026 12.006 35.7274 11.878L35.3114 11.686C35.1407 11.558 35.0554 11.366 35.0554 11.11ZM12.7834 17.286C15.066 17.286 16.6554 16.7207 17.5514 15.59C15.2687 14.5874 13.722 14.086 12.9114 14.086C12.122 14.086 11.5567 14.2354 11.2154 14.534C10.8527 14.8114 10.6714 15.174 10.6714 15.622C10.6714 16.7314 11.3754 17.286 12.7834 17.286Z" fill="white"/>
<circle cx="34.0725" cy="39.2701" r="2.60913" fill="white"/>
</svg>
