<svg width="60" height="44" viewBox="0 0 60 44" fill="none" xmlns="http://www.w3.org/2000/svg">
<path d="M55.008 0.979956C53.9677 1.01297 52.9813 1.45013 52.258 2.19865C42.3318 12.1464 31.7066 23.5452 21.7893 33.605L7.63305 21.9486C7.23689 21.5604 6.76434 21.2588 6.24539 21.063C5.72644 20.8672 5.17245 20.7815 4.61859 20.8113C4.06473 20.841 3.52311 20.9856 3.02813 21.2359C2.53314 21.4861 2.09561 21.8366 1.74331 22.265C1.39102 22.6934 1.13167 23.1904 0.981719 23.7244C0.831773 24.2584 0.794513 24.8177 0.872304 25.3669C0.950096 25.9161 1.14124 26.4431 1.4336 26.9145C1.72595 27.3858 2.11314 27.7912 2.57055 28.105L19.5706 42.105C20.3371 42.7391 21.3125 43.0649 22.3064 43.0187C23.3002 42.9724 24.2411 42.5576 24.9456 41.855C35.6941 31.0834 47.3608 18.4627 57.9455 7.85496C58.5287 7.29182 58.9271 6.56478 59.0878 5.77018C59.2485 4.97557 59.164 4.15093 58.8454 3.40543C58.5269 2.65994 57.9894 2.02882 57.3041 1.59568C56.6188 1.16254 55.8181 0.947796 55.008 0.979956Z" fill="black"/>
</svg>
